<svg width="16.000000" height="3.332153" viewBox="0 0 12 3.33215" fill="none" xmlns="http://www.w3.org/2000/svg" xmlns:xlink="http://www.w3.org/1999/xlink">
	<desc>
			Created with Pixso.
	</desc>
	<defs/>
	<path id="Mask" d="M11.3571 3.33215C11.7134 3.33215 12 3.04553 12 2.68927L12 0.642883C12 0.286621 11.7134 0 11.3571 0L0.64286 0C0.286606 0 0 0.286621 0 0.642883L0 2.68927C0 3.04553 0.286606 3.33215 0.64286 3.33215L11.3571 3.33215Z" fill="#FF7E1B" fill-opacity="1.000000" fill-rule="nonzero"/>
	<mask id="mask0_785" mask-type="alpha" maskUnits="userSpaceOnUse" x="0.000000" y="0.000000" width="12.000000" height="3.332153">
		<path id="Mask" d="M11.3571 3.33215C11.7134 3.33215 12 3.04553 12 2.68927L12 0.642883C12 0.286621 11.7134 0 11.3571 0L0.64286 0C0.286606 0 0 0.286621 0 0.642883L0 2.68927C0 3.04553 0.286606 3.33215 0.64286 3.33215L11.3571 3.33215Z" fill="#FF7E1B" fill-opacity="1.000000" fill-rule="nonzero"/>
	</mask>
</svg>
